<?xml version="1.0" encoding="utf-8"?>
<!-- Generator: Adobe Illustrator 24.2.0, SVG Export Plug-In . SVG Version: 6.00 Build 0)  -->
<svg version="1.1" id="Layer_1" xmlns="http://www.w3.org/2000/svg" xmlns:xlink="http://www.w3.org/1999/xlink" x="0px" y="0px"
	 viewBox="0 0 1000 1000" style="enable-background:new 0 0 1000 1000;" xml:space="preserve">
<style type="text/css">
	.st0{fill:#333333;}
</style>
<path class="st0" d="M792.5,618.9c-31.6,33.9-70.9,60.5-115.2,77.1c3-3.6,5.6-7.5,7.9-11.7c2.2-3.9,3.8-8.1,6.1-12
	c0.7-1.1,0.9-2.6,1.3-3.9c3.4-12.8,5.8-25.7,6.9-38.9c1.9-22.2-0.3-44-6.7-65.4c-6.4-21.3-14.4-41.9-24-62
	c-6.2-12.9-12.1-26-18.5-38.8c-6.7-13.4-13.5-26.7-21.5-39.4c-2.1-3.4-3.5-7.1-5.3-10.7c-6.6-13.3-14.2-26-21.5-38.9
	c-8.2-14.6-16.2-29.3-21.2-45.3c-5.4-17.4-9.9-35-12.1-53.1c-0.9-7.5-1.3-15.1-1.6-22.7c-0.1-2.8,0.5-5.5,0.6-8.2
	c0.1-1.8,1.1-2.7,2.7-3.1c2-0.4,3.9-0.8,5.9-0.8c4.4,0,7.1-2.6,8.9-6.3c0.6-1.3,1-2.8,1.5-4.2c0.7-2.3,1.8-4.4,3.7-5.9
	c2.1-1.7,2.8-4,2.8-6.6c-0.1-3.4-0.1-6.7,0.5-10c0.6-3.1-0.7-5.9-2.3-8.5c-2.5-3.9-5.7-7.3-9.4-10.1c-3.4-2.6-7.2-3.9-11.5-1.8
	c-1.1,0.5-2.3,1.4-3.4,0.1c-1.1-1.4-0.2-2.6,0.6-3.7c2.2-3.5,3.3-7.2,2.4-11.4c-1.5-6.5-8.9-13.3-15.2-13.9
	c-8.2-0.8-15.2,3.4-18.3,10.8c-1.3,3.2-3.6,4.5-7,3.9c-1.3-0.2-2.7-0.6-3.9-1.2c-7.9-3.9-16.1-3.6-24.5-1.9
	c-0.4,0.1-0.7,0.1-1.1,0.3c-1.8,0.6-3.2,0.2-3.7-1.9c-0.1-0.2-0.2-0.5-0.3-0.7c-4.6-10.4-11.2-13.4-22.2-12.2
	c-7.4,0.8-14.6,8.3-15.4,15.8c-0.5,5.4-0.3,10.8,3.2,15.3c1.8,2.3,1.6,4.3,0.3,6.8c-9,18.4-19.1,36.1-30.3,53.2
	c-17.7,27-34.7,54.4-51.8,81.8c-17.1,27.4-33.2,55.3-47.4,84.3c-14.7,29.9-27,60.8-34.4,93.4c-1.7,7.4-3.4,14.7-5,22.1
	c-14.7-35.5-22.9-74.5-22.9-115.3c0-166.6,135-301.6,301.6-301.6c84.7,0,161.2,34.9,216,91.1C727.5,131.1,637.1,85.4,535.9,85.4
	c-181.4,0-328.4,147-328.4,328.4c0,81.9,30,156.7,79.5,214.2c1.2,8.5,3.2,16.8,5.5,25.2c3.9,14.3,11.1,26.9,18.8,39.3
	c2.8,4.5,6.6,8.1,11.1,11c1.4,0.9,2.7,1.9,4.4,1.8c1.7-0.1,2.1,0.7,2.4,2.1c0.5,2.4,0.8,4.9,2.1,7.2c0.6,1.1,1,2.2,2.1,2.9
	c0.7-0.5,0.5-1,0.3-1.4c-2.6-7.8-1-15.4,1.6-22.7c1.8-5,4.1-9.8,6.7-14.3c15.6,11.4,32.3,21.5,49.8,30.1c-0.9,2.5-1.5,5-2.1,7.5
	c-5.2,20.3-10,40.6-13.1,61.4c-1.2,8.3-1.9,16.6-2.8,24.9c-0.6,6.1-1.8,12.1-2.8,18.1c-1.3,8.2-2.8,16.5-4.1,24.7
	c-1.2,7.5-3.1,14.9-5.1,22.2c-1.6,6-3.2,12.1-4.6,18.1c-0.6,2.8-1.8,4.8-4.6,5.9c-1.4,0.5-2.6,1.4-3.8,2.3c-3.1,2.3-3.3,4.2-0.7,7.2
	c3.6,4.2,8.3,6.3,13.7,6.8c2,0.2,3.9,0.5,5.7,1.3c3.6,1.6,7.3,1.1,11,0.6c1.7-0.2,2.8-1.6,3.5-3.1c1.2-2.6,1.9-5.4,2.2-8.3
	c0.6-5.4,0.9-10.9,2.2-16.3c0.3-1.5,0.2-3-0.1-4.5c-0.6-2.9-0.9-5.7,1-8.3c0.3-0.4,0.4-0.9,0.4-1.4c1.4-9,2.6-17.9,4.1-26.9
	c2.9-17.7,8.4-34.6,15.6-51c6.4-14.6,13.5-28.9,21-43c3.5-6.5,6.4-13.2,9.4-20c31,9.7,63.9,14.9,98.1,14.9c20.2,0,40-1.8,59.2-5.3
	c18.2,30.7,38,60.5,57.9,90.2c4.7,6.9,8.3,14.5,12.4,21.7c0.4,0.7,0.8,1.6,0.8,2.5c0,2.6,0.4,4.8,2.2,6.9c1.2,1.4,0.8,3.3,0.3,5
	c-0.8,3-1.6,6-1.7,9.2c-0.1,3.5,0.5,6.7,2.2,9.7c2.8,4.8,4.7,9.8,6,15.2c1.2,5.1,2.9,6.3,8.1,6.4c0.4,0,0.7,0,1.1,0
	c4.8,0,4.8,0,5.1-5c0-0.5,0-1,0.1-1.5c0.2-1.4,1.1-1.6,2.2-1c0.6,0.4,1.3,0.8,1.8,1.3c1.1,1.2,2.3,2.3,3.2,3.6
	c3.5,5.1,8.4,8.1,14.2,9.7c10.8,2.8,21.8,3.7,33,3.2c0.2,0,0.5,0,0.7-0.1c1.3-0.3,3-0.4,3.3-1.9c0.3-1.4-1.1-2.2-2-2.9
	c-5.3-4.6-11-8.6-16.6-12.7c-2.7-2-5.3-4.1-8-6.2c-1.4-1.1-2.6-2.3-3.5-3.8c-9.7-15.2-19.5-30.4-29.1-45.7
	c-8.8-14-16.1-28.7-21.7-44.2c-8.5-23.9-18.1-47.3-27.5-70.9C700.5,705.3,753.4,667.8,792.5,618.9z M522.1,295
	c0-1.6,1.1-2.1,2.5-2.2c1.5-0.1,2.8-0.9,4.2-1.5c7.5-3.5,14.5-7.7,20.8-13.1c2.1-1.9,2.6-1.6,3.1,1.3c0.1,0.4,0.1,0.7,0.2,1.1
	c1.8,10.7,3.7,21.3,6.7,31.8c0.7,2.5,1.3,5.1,1.4,7.8c-0.1,1.1,0.4,2.7-0.9,3.3c-1.4,0.7-2.2-0.8-3.1-1.6c-0.8-0.6-1.4-1.4-2.1-2.1
	c-2.6-2.9-5.1-5.8-7.6-8.7c-1.7-2-3.5-3.6-6.1-4.2c-6.3-1.4-11.6-5.1-17.3-7.8C522.1,298.3,522.1,296.6,522.1,295z M497.6,400.5
	c1.5,2.3,2.5,4.9,2.6,7.7c0,0.5,0,1-0.1,1.4c-0.4,1.4-0.6,3.2-2.2,3.6c-1.5,0.4-1.8-1.4-2.5-2.3c-4.7-5.6-10.4-9.7-18-9.9
	c-4.3-0.1-5.3,0.8-5.5,5.1c-0.1,2.5,0.2,5-0.4,7.4c-0.5,2.2-1.4,2.7-3.5,1.6c-3-1.5-5.6-3.6-8.3-5.7c-8.4-6.7-15.8-14.4-23.9-21.4
	c-2.8-2.4-4.3-5.3-5.5-8.6c-0.7-2-0.4-3.5,1.3-4.9c6.3-5.3,12.8-10.3,19.7-14.7c0.7-0.4,1.5-1.2,2.4-0.7c1.1,0.6,0.9,1.7,0.8,2.7
	c-0.2,2.3-0.6,4.7-0.9,7c-0.2,1.5,0.4,2.4,1.9,2.6c1.1,0.2,2.2,0.4,3.3,0.4c3.9,0.1,7.7,0.3,11.6,0.1c3.2-0.1,5.3,0.9,7.3,3.5
	c2.8,3.7,5.2,7.7,8.8,10.6c2,1.6,3.7,3.4,5.1,5.4C493.7,394.4,495.7,397.4,497.6,400.5z M334.3,599.3c-1-12.4-1-24.8-0.5-37.2
	c0.6-15.1,2.6-30,5.4-44.8c4.2-22.5,10-44.5,16.8-66.3c2.7-8.6,5.2-17.2,7.3-25.9c3-12.4,7.9-24.1,13.2-35.7
	c4.6-10,9.4-19.8,14-29.7c5.8-12.5,12.8-24.2,20.4-35.7c12.4-18.7,23.6-38.1,34.3-57.8c7.5-13.7,14.1-27.8,19.4-42.4
	c0.3-0.7,0.5-1.4,1.6-2.1c0.9,1.8,1,3.5,1.1,5.2c1,12,5,22.8,13,32c1.3,1.5,2.1,3,2,5c-0.2,2.5,0.7,4.4,3.4,4.9
	c1.5,0.3,1.4,1.2,0.7,2.2c-1.3,1.9-2.7,3.8-3.3,6.5c1.6-0.2,1.7-1.3,2.1-2c0.8-1.6,1.7-3.1,3.2-4.1c2.2-1.4,4.5-0.5,5.1,2
	c1,4.6,0.7,9.2,0,13.7c-0.3,1.7-1.2,2.4-2.8,2.4c-7.5,0-14.2,3.4-21,5.9c-4.2,1.5-7.8,4.8-10.9,8.3c-1.7,2-2.6,4.3-2.7,6.8
	c-0.1,3.2-1.4,5.6-3.8,7.8c-16.6,15.3-33.3,30.4-52.2,42.8c-4.1,2.7-7.1,6.6-10,10.5c-0.9,1.2-1.1,2.7-1.3,4.2
	c-0.8,5.5,2.4,10,4,14.8c0.2,0.5,0.7,1.2,1.2,1.4c4,1.1,6.2,4.4,9.1,6.9c8,6.8,16.9,12.3,25.7,18c10.7,7,21.9,12.9,33.3,18.5
	c1,0.5,2,1,3,1.5c2.8,1.5,3,2,1,4.5c-2.8,3.4-5.7,6.6-8.5,9.9c-1.1,1.3-2.1,2.8-3,4.3c-1.4,2.3-1.3,2.7,0.9,4.3c1.3,1,2.7,1.9,4,2.8
	c1.6,1,1.8,2.3,0.6,3.7c-1.9,2.3-3.8,4.6-5.7,6.9c-4,5.1-7.7,10.4-10.5,16.3c-1.5,3.1-1.5,3.1,1.1,5.4c2,1.8,4.1,3.6,6.3,5.3
	c1.8,1.5,3.9,2.7,4.4,5.3c0.1,0.3,0.4,0.7,0.6,0.9c3.1,1.5,2.9,4.3,2.8,7.1c-0.3,8.4-2,16.6-3.3,24.8c-5.1,30.9-12,61.4-21.2,91.3
	c-4.5,14.7-10.5,28.8-19.9,41.1C383.8,652.1,356.5,627.7,334.3,599.3z M453.7,691c1-2.2,2.1-4.5,3.3-6.6c2.3-4.3,5-8.3,7.8-12.3
	c5.6-8.1,10.6-16.5,14.9-25.5c5.8-12.2,12.4-23.9,18.1-36.1c6.4-13.5,12-27.4,17-41.5c0.4-1.2,0.4-3.2,1.9-3.3
	c1.5-0.1,1.9,1.7,2.6,2.9c10.6,16.7,21.2,33.5,31.9,50.2c6.8,10.6,12.8,21.7,17.8,33.2c3.6,8.2,5.5,16.8,6.8,25.5
	c1.9,12.6,4.3,25.1,8.6,37.1c-4.2,0.2-8.4,0.3-12.6,0.3C529.9,715,490,706.5,453.7,691z M632.7,707.6c-1-2.7-1.9-5.4-2.4-8.2
	c-0.6-3.4-1.8-6.8-3.9-9.6c-0.8-1-1.1-2.2-1.7-3.3c-4.4-9.1-6-18.9-7.6-28.8c-3.5-21.4-8.7-42.5-15.2-63.2
	c-7-22.3-15.3-44-25.3-65.1c-3.1-6.5-3-6.6,3.7-8.9c2.1-0.7,4.4-1,6.5-1.7c2.6-0.9,2.9-1.2,2.3-4c-0.3-1.4,0.1-2.5,1-3.4
	c1-0.9,2-1.9,3.1-2.7c2.5-1.9,4.6-4.2,6.4-6.8c1.5-2.2,1.5-3.3-0.4-5.3c-2.6-3-5.3-6-8.1-8.8c-6-6.1-12.1-12.2-18.2-18.3
	c-2-2-3.4-4.2-3.8-7.1c-0.3-2.5-1.3-4.8-2.3-7.1c-1-2.1-1.1-4.2-0.9-6.5c1.1-9.9,1.5-19.9,0.5-29.8c-0.4-4.2,0.3-8.2,1.3-12.2
	c1.7-6.5,3.1-13.1,4.1-19.8c0.5-3.9,0.4-7.7,0.5-11.6c0-2.1,0.6-3.9,2.1-5.4c1-1,2-1,2.8,0.3c0.7,1.1,1.2,2.2,1.8,3.3
	c0.7,1.3,1.1,3,3.2,1.3c0.8-0.6,1.4,0.3,1.7,0.9c1,2,2.1,4,2.9,6.1c4.5,12.6,10.1,24.7,15,37.1c9.8,24.8,18.4,50,26,75.6
	c6.1,20.3,11.8,40.7,17,61.2c3.5,13.9,6.1,28,7.8,42.2c0.6,4.8,0.8,9.7,1.1,14.5c0.4,7.4,0,14.7-0.1,22c-0.2,10.7-3,20.9-6.5,30.9
	c-0.4,1.2-1.1,2.2-2.3,2.8c-1.9,0.8-1.9,1.9-0.7,3.4c3.3,4.4,6.2,9,8.4,14.1c2.4,5.5,3.9,11.2,4.1,17.1c-7.7,2.2-15.5,4.2-23.4,5.8
	C633,708.4,632.9,708,632.7,707.6z"/>
</svg>
